<svg width="22" height="30" viewBox="0 0 22 30" fill="none" xmlns="http://www.w3.org/2000/svg">
<path d="M16 15C16 13.4087 15.3679 11.8826 14.2426 10.7574C13.1174 9.63214 11.5913 9 10 9C8.4087 9 6.88258 9.63214 5.75736 10.7574C4.63214 11.8826 4 13.4087 4 15C4 22 1 24 1 24H19C19 24 16 22 16 15Z" stroke="#808080" stroke-width="2" stroke-linecap="round" stroke-linejoin="round"/>
<path d="M11.73 28C11.5542 28.3031 11.3019 28.5547 10.9982 28.7295C10.6946 28.9044 10.3504 28.9965 10 28.9965C9.64964 28.9965 9.30541 28.9044 9.00179 28.7295C8.69818 28.5547 8.44583 28.3031 8.27002 28" stroke="#808080" stroke-width="2" stroke-linecap="round" stroke-linejoin="round"/>
<circle className="animate-ping" cx="14.5" cy="7.5" r="6.5" fill="#4E9BB9" stroke="white" stroke-width="2"/>
</svg>
